<mxfile host="app.diagrams.net" modified="2022-03-30T17:42:57.401Z" agent="5.0 (Windows NT 10.0; Win64; x64) AppleWebKit/537.36 (KHTML, like Gecko) Chrome/98.0.4758.119 YaBrowser/22.3.0.2430 Yowser/2.5 Safari/537.36" etag="d0bTCJZcYraZyLxbIWqr" version="17.3.0" type="github">
  <diagram id="cpUGC7C1VdkW1q-9k5Mj" name="Page-1">
    <mxGraphModel dx="1024" dy="545" grid="1" gridSize="10" guides="1" tooltips="1" connect="1" arrows="1" fold="1" page="1" pageScale="1" pageWidth="850" pageHeight="1100" math="0" shadow="0">
      <root>
        <mxCell id="0" />
        <mxCell id="1" parent="0" />
      </root>
    </mxGraphModel>
  </diagram>
</mxfile>
